<svg width="25" height="25" viewBox="0 0 25 25" fill="none" xmlns="http://www.w3.org/2000/svg">
<g clip-path="url(#clip0_56952_710)">
<path d="M20.0569 11.9573C19.83 11.7905 19.6371 11.7553 19.4608 11.6861C19.3692 11.6554 19.2847 11.6068 19.2121 11.5431C19.1395 11.4794 19.0804 11.4019 19.0381 11.315C18.874 10.9661 18.7251 10.6078 18.5317 10.2757C18.3846 10.0232 18.3983 9.79786 18.4822 9.53613C18.625 9.09107 18.6151 9.0309 18.1586 9.01251C17.4581 8.9843 17.1196 8.44572 16.6585 8.07577C16.3918 7.86176 16.1558 7.62286 16.1664 7.2398C16.1711 7.06797 16.0574 7.03111 15.94 7.10812C15.5648 7.35437 15.2691 7.2129 14.9892 6.94445C14.871 6.83109 14.7644 6.85109 14.6321 6.94191C14.2401 7.2112 13.7639 7.30976 13.3564 7.55306C13.2173 7.63612 13.0754 7.52647 12.9382 7.49536C12.7833 7.46021 12.6823 7.47831 12.7046 7.66301C12.7404 7.95879 12.5773 8.16333 12.3866 8.3436C11.9351 8.77047 11.5358 9.23418 11.2353 9.78284C11.1595 9.9239 11.054 10.0469 10.9261 10.1433C10.7982 10.2397 10.651 10.3072 10.4945 10.3413C10.1865 10.4155 9.89456 10.5546 9.57388 10.5773C9.44503 10.5864 9.42187 10.6674 9.40759 10.7715C9.34724 11.2109 9.2816 11.6506 9.29916 12.0953C9.31435 12.4799 9.17659 12.7554 8.82794 12.9474C7.88358 13.4675 7.35859 14.3169 7.03635 15.3115C6.95136 15.5804 6.78058 15.814 6.55017 15.9766C6.12775 16.2806 5.69163 16.5656 5.26903 16.8694C5.02331 17.046 4.75206 17.0149 4.48774 16.9818C4.20096 16.9435 3.9114 16.9301 3.62232 16.9418C3.47237 16.9557 3.32159 16.9263 3.18778 16.8572C3.05397 16.7882 2.94272 16.6822 2.86717 16.552C2.77554 16.4083 2.6687 16.2937 2.48993 16.2672C2.45107 16.2631 2.41429 16.2476 2.38425 16.2226C1.86022 15.7021 1.24904 15.2642 0.842999 14.6316C0.619075 14.2827 0.624658 13.8971 0.736764 13.5146C0.891652 12.9861 0.923749 12.4737 0.617068 11.983C0.558996 11.89 0.593796 11.8032 0.653344 11.7154C0.734239 11.5962 0.795713 11.4639 0.873774 11.3425C1.00029 11.1458 1.01333 10.9737 0.810894 10.8117C0.693871 10.7181 0.687606 10.5812 0.722726 10.4395C0.841006 9.96225 0.953157 9.48345 1.07381 9.0068C1.11942 8.83852 1.19781 8.68089 1.30447 8.54297C1.52906 8.24109 1.76239 7.9451 1.97379 7.63421C2.18155 7.33048 2.46595 7.08711 2.79814 6.92879C3.01221 6.82304 3.12261 6.66725 3.14791 6.41156C3.23152 5.56663 3.24804 4.71837 3.29246 3.87195C3.34396 2.89048 3.45291 1.91132 3.41995 0.925161C3.40828 0.575967 3.77744 0.268263 4.11953 0.300677C4.29766 0.317554 4.35902 0.441564 4.37504 0.59988C4.43132 1.15611 4.47293 1.71427 4.54638 2.26822C4.65891 3.11698 4.73109 3.96983 4.85911 4.83247C4.92241 4.66961 5.00587 4.51143 5.04487 4.34294C5.12986 3.97575 5.36513 3.73543 5.6666 3.54379C6.03254 3.31117 6.41067 3.09646 6.76639 2.84934C7.1926 2.55324 7.65563 2.51372 8.14846 2.57454C8.75764 2.64971 8.75875 2.64545 9.01293 2.10739C9.07059 1.98534 9.13064 1.86356 9.1763 1.73686C9.31256 1.35873 9.55965 1.10215 9.94761 0.975831C10.4854 0.800729 10.9501 0.48123 11.4223 0.183962C11.6311 0.0525145 11.835 -0.0215166 12.0735 0.00554133C12.6404 0.0698446 13.2097 0.0607836 13.7779 0.0576868C14.114 0.055854 14.3498 0.189463 14.5192 0.469018C14.6392 0.666961 14.7685 0.859294 14.8865 1.05835C14.9743 1.20639 15.0916 1.24481 15.2532 1.19835C15.4944 1.12899 15.7391 1.06817 15.9604 0.946786C16.0185 0.912206 16.0857 0.895839 16.1532 0.899797C16.2207 0.903756 16.2855 0.92786 16.3392 0.968996C16.777 1.25005 17.2171 1.52755 17.6555 1.80776C17.7718 1.88212 17.8808 1.97913 17.9161 2.1092C17.9953 2.40043 18.194 2.3633 18.3882 2.28894C18.7391 2.15464 19.082 1.99941 19.4275 1.85148C19.9692 1.61962 20.5045 1.64747 20.9929 1.96497C21.5027 2.29643 21.9967 2.65416 22.5535 2.90208C22.8445 3.03162 23.0288 3.2352 23.1061 3.52756C23.3253 4.35646 23.5327 5.18851 23.7392 6.02071C23.7895 6.22366 23.6903 6.40049 23.5924 6.56641C23.4801 6.76895 23.3524 6.96249 23.2103 7.1453C23.0606 7.32719 23.1006 7.4505 23.2694 7.57479C23.3874 7.67401 23.5105 7.76714 23.6381 7.85379C23.8074 7.95038 23.937 8.10384 24.0039 8.28691C24.1445 8.66566 24.2755 9.04793 24.3967 9.43375C24.4128 9.4942 24.4167 9.55724 24.4083 9.61922C24.3998 9.68119 24.3791 9.74087 24.3473 9.79477C24.0024 10.472 23.6709 11.1561 23.3298 11.8354C23.2818 11.9311 23.3392 11.9797 23.3849 12.0381C23.6165 12.3343 23.8317 12.6461 24.0879 12.9193C24.2839 13.1284 24.3425 13.3507 24.2745 13.6066C24.1508 14.0722 24.0084 14.533 23.8724 14.9953C23.841 15.1021 23.7554 15.1697 23.6811 15.2452C23.3904 15.5402 23.077 15.8148 22.8558 16.1722C22.7741 16.3042 22.6418 16.363 22.4968 16.3954C22.4135 16.4199 22.3274 16.4342 22.2406 16.4378C21.6837 16.4216 21.3212 16.6273 21.2702 17.234C21.2549 17.417 21.1008 17.5215 20.9406 17.5658C20.4243 17.7085 19.9763 18.0676 19.4087 18.0473C19.3032 18.0436 19.2496 18.1084 19.2541 18.2133C19.2633 18.4281 19.1568 18.6024 19.0584 18.779C18.8052 19.2337 18.4698 19.5337 17.8962 19.4397C17.6249 19.3952 17.3617 19.3835 17.3143 19.7854C17.2994 19.9122 17.1351 20.0283 17.0259 20.1359C16.7651 20.3928 16.5364 20.7496 16.2208 20.8666C15.8317 21.0109 15.8237 21.2916 15.7272 21.5708C15.7021 21.6435 15.6864 21.7283 15.6384 21.7829C15.2926 22.1763 15.5558 22.5347 15.7024 22.8933C15.7686 23.0553 16.0054 22.9656 16.0953 23.1006C16.2111 23.2747 16.3325 23.1849 16.4875 23.1711C17.1428 23.1127 17.8353 22.8955 18.3986 23.4592C18.516 23.5766 18.5889 23.5514 18.6586 23.4122C18.8408 23.0484 19.6087 22.9794 19.8839 23.3525C20.039 23.5627 19.9739 23.8426 19.9285 24.0826C19.8565 24.4628 19.4049 24.736 19.0337 24.6392C18.8463 24.5903 18.7294 24.6558 18.5657 24.7454C18.1333 24.9921 17.6224 25.0629 17.1392 24.9431C16.8603 24.8727 16.5944 24.75 16.3242 24.6467C16.2443 24.6161 16.1508 24.5892 16.1139 24.5036C16.0246 24.2963 15.9376 24.2648 15.6857 24.3325C15.4212 24.4036 15.1278 24.1966 14.9432 23.9784C14.8326 23.8477 14.7298 23.803 14.5783 23.7545C14.2817 23.6596 13.9487 23.5652 13.9619 23.1414C13.965 23.0398 13.9138 22.996 13.8148 23.0432C13.6778 23.1086 13.5443 23.0676 13.4221 23.0159C13.0071 22.8336 12.6103 22.6123 12.2371 22.3548C12.1262 22.2742 12.0509 22.1536 12.0273 22.0185C12.0007 21.8665 11.9642 21.7164 11.9183 21.5691C11.7814 21.2035 11.8306 20.8777 12.0679 20.5668C12.1379 20.4624 12.1877 20.3458 12.2147 20.2231C12.3264 19.8136 12.5111 19.4738 12.9498 19.3323C13.1664 19.2625 13.2273 19.1009 13.2026 18.8761C13.1841 18.646 13.18 18.4149 13.1902 18.1843C13.1904 18.1168 13.2102 18.0507 13.2473 17.9943C13.4929 17.6608 13.7443 17.3315 13.9968 17.0032C14.0413 16.9392 14.1039 16.8901 14.1765 16.862C14.2492 16.8339 14.3285 16.8283 14.4044 16.8457C14.4811 16.8549 14.5585 16.8573 14.6356 16.8528C15.0811 16.8539 15.0812 16.8536 15.1313 16.4231C15.1349 16.3654 15.1416 16.3079 15.1513 16.2509C15.2364 15.8747 16.2622 15.1474 16.6472 15.1882C17.1008 15.2364 17.0541 15.2009 17.2761 14.8205C17.6057 14.2561 18.1387 13.8552 18.6179 13.4173C18.6654 13.3739 18.765 13.3781 18.8407 13.3769C18.8672 13.3796 18.894 13.3769 18.9194 13.369C18.9448 13.361 18.9684 13.3481 18.9887 13.3308C19.009 13.3136 19.0256 13.2924 19.0376 13.2686C19.0495 13.2448 19.0565 13.2188 19.0581 13.1923C19.155 12.6238 19.4244 12.1822 20.0569 11.9573Z" fill="currentColor"/>
</g>
<defs>
<clipPath id="clip0_56952_710">
<rect width="25" height="25" fill="white"/>
</clipPath>
</defs>
</svg>
