<svg width="300.405" height="75" viewBox="0 0 300.405 75" fill="none" xmlns="http://www.w3.org/2000/svg">
<path d="M9.24324 4.6875C9.24324 7.27633 7.17407 9.375 4.62162 9.375C2.06917 9.375 0 7.27633 0 4.6875C0 2.09866 2.06917 0 4.62162 0C7.17407 0 9.24324 2.09866 9.24324 4.6875Z" fill="#000" opacity="0.15" />
<path d="M41.5946 4.6875C41.5946 7.27633 39.5254 9.375 36.973 9.375C34.4205 9.375 32.3514 7.27633 32.3514 4.6875C32.3514 2.09866 34.4205 0 36.973 0C39.5254 0 41.5946 2.09866 41.5946 4.6875Z" fill="#000" opacity="0.15" />
<path d="M73.9459 4.6875C73.9459 7.27633 71.8768 9.375 69.3243 9.375C66.7719 9.375 64.7027 7.27633 64.7027 4.6875C64.7027 2.09866 66.7719 0 69.3243 0C71.8768 0 73.9459 2.09866 73.9459 4.6875Z" fill="#000" opacity="0.15" />
<path d="M106.297 4.6875C106.297 7.27633 104.228 9.375 101.676 9.375C99.1232 9.375 97.0541 7.27633 97.0541 4.6875C97.0541 2.09866 99.1232 0 101.676 0C104.228 0 106.297 2.09866 106.297 4.6875Z" fill="#000" opacity="0.15" />
<path d="M138.649 4.6875C138.649 7.27633 136.579 9.375 134.027 9.375C131.475 9.375 129.405 7.27633 129.405 4.6875C129.405 2.09866 131.475 0 134.027 0C136.579 0 138.649 2.09866 138.649 4.6875Z" fill="#000" opacity="0.15" />
<path d="M171 4.6875C171 7.27633 168.931 9.375 166.378 9.375C163.826 9.375 161.757 7.27633 161.757 4.6875C161.757 2.09866 163.826 0 166.378 0C168.931 0 171 2.09866 171 4.6875Z" fill="#000" opacity="0.15" />
<path d="M203.351 4.6875C203.351 7.27633 201.282 9.375 198.73 9.375C196.177 9.375 194.108 7.27633 194.108 4.6875C194.108 2.09866 196.177 0 198.73 0C201.282 0 203.351 2.09866 203.351 4.6875Z" fill="#000" opacity="0.15" />
<path d="M235.703 4.6875C235.703 7.27633 233.634 9.375 231.081 9.375C228.529 9.375 226.46 7.27633 226.46 4.6875C226.46 2.09866 228.529 0 231.081 0C233.634 0 235.703 2.09866 235.703 4.6875Z" fill="#000" opacity="0.15" />
<path d="M268.054 4.6875C268.054 7.27633 265.985 9.375 263.433 9.375C260.88 9.375 258.811 7.27633 258.811 4.6875C258.811 2.09866 260.88 0 263.433 0C265.985 0 268.054 2.09866 268.054 4.6875Z" fill="#000" opacity="0.15" />
<path d="M300.405 4.6875C300.405 7.27633 298.336 9.375 295.784 9.375C293.232 9.375 291.162 7.27633 291.162 4.6875C291.162 2.09866 293.232 0 295.784 0C298.336 0 300.405 2.09866 300.405 4.6875Z" fill="#000" opacity="0.15" />
<path d="M9.24324 37.5C9.24324 40.0888 7.17407 42.1875 4.62162 42.1875C2.06917 42.1875 0 40.0888 0 37.5C0 34.9112 2.06917 32.8125 4.62162 32.8125C7.17407 32.8125 9.24324 34.9112 9.24324 37.5Z" fill="#000" opacity="0.3" />
<path d="M41.5946 37.5C41.5946 40.0888 39.5254 42.1875 36.973 42.1875C34.4205 42.1875 32.3514 40.0888 32.3514 37.5C32.3514 34.9112 34.4205 32.8125 36.973 32.8125C39.5254 32.8125 41.5946 34.9112 41.5946 37.5Z" fill="#000" opacity="0.3" />
<path d="M73.9459 37.5C73.9459 40.0888 71.8768 42.1875 69.3243 42.1875C66.7719 42.1875 64.7027 40.0888 64.7027 37.5C64.7027 34.9112 66.7719 32.8125 69.3243 32.8125C71.8768 32.8125 73.9459 34.9112 73.9459 37.5Z" fill="#000" opacity="0.3" />
<path d="M106.297 37.5C106.297 40.0888 104.228 42.1875 101.676 42.1875C99.1232 42.1875 97.0541 40.0888 97.0541 37.5C97.0541 34.9112 99.1232 32.8125 101.676 32.8125C104.228 32.8125 106.297 34.9112 106.297 37.5Z" fill="#000" opacity="0.3" />
<path d="M138.649 37.5C138.649 40.0888 136.579 42.1875 134.027 42.1875C131.475 42.1875 129.405 40.0888 129.405 37.5C129.405 34.9112 131.475 32.8125 134.027 32.8125C136.579 32.8125 138.649 34.9112 138.649 37.5Z" fill="#000" opacity="0.3" />
<path d="M171 37.5C171 40.0888 168.931 42.1875 166.378 42.1875C163.826 42.1875 161.757 40.0888 161.757 37.5C161.757 34.9112 163.826 32.8125 166.378 32.8125C168.931 32.8125 171 34.9112 171 37.5Z" fill="#000" opacity="0.3" />
<path d="M203.351 37.5C203.351 40.0888 201.282 42.1875 198.73 42.1875C196.177 42.1875 194.108 40.0888 194.108 37.5C194.108 34.9112 196.177 32.8125 198.73 32.8125C201.282 32.8125 203.351 34.9112 203.351 37.5Z" fill="#000" opacity="0.3" />
<path d="M235.703 37.5C235.703 40.0888 233.634 42.1875 231.081 42.1875C228.529 42.1875 226.46 40.0888 226.46 37.5C226.46 34.9112 228.529 32.8125 231.081 32.8125C233.634 32.8125 235.703 34.9112 235.703 37.5Z" fill="#000" opacity="0.3" />
<path d="M268.054 37.5C268.054 40.0888 265.985 42.1875 263.433 42.1875C260.88 42.1875 258.811 40.0888 258.811 37.5C258.811 34.9112 260.88 32.8125 263.433 32.8125C265.985 32.8125 268.054 34.9112 268.054 37.5Z" fill="#000" opacity="0.3" />
<path d="M300.405 37.5C300.405 40.0888 298.336 42.1875 295.784 42.1875C293.232 42.1875 291.162 40.0888 291.162 37.5C291.162 34.9112 293.232 32.8125 295.784 32.8125C298.336 32.8125 300.405 34.9112 300.405 37.5Z" fill="#000" opacity="0.3" />
<path d="M9.24324 70.3125C9.24324 72.9013 7.17407 75 4.62162 75C2.06917 75 0 72.9013 0 70.3125C0 67.7237 2.06917 65.625 4.62162 65.625C7.17407 65.625 9.24324 67.7237 9.24324 70.3125Z" fill="#000" opacity="0.4" />
<path d="M41.5946 70.3125C41.5946 72.9013 39.5254 75 36.973 75C34.4205 75 32.3514 72.9013 32.3514 70.3125C32.3514 67.7237 34.4205 65.625 36.973 65.625C39.5254 65.625 41.5946 67.7237 41.5946 70.3125Z" fill="#000" opacity="0.4" />
<path d="M73.9459 70.3125C73.9459 72.9013 71.8768 75 69.3243 75C66.7719 75 64.7027 72.9013 64.7027 70.3125C64.7027 67.7237 66.7719 65.625 69.3243 65.625C71.8768 65.625 73.9459 67.7237 73.9459 70.3125Z" fill="#000" opacity="0.4" />
<path d="M106.297 70.3125C106.297 72.9013 104.228 75 101.676 75C99.1232 75 97.0541 72.9013 97.0541 70.3125C97.0541 67.7237 99.1232 65.625 101.676 65.625C104.228 65.625 106.297 67.7237 106.297 70.3125Z" fill="#000" opacity="0.4" />
<path d="M138.649 70.3125C138.649 72.9013 136.579 75 134.027 75C131.475 75 129.405 72.9013 129.405 70.3125C129.405 67.7237 131.475 65.625 134.027 65.625C136.579 65.625 138.649 67.7237 138.649 70.3125Z" fill="#000" opacity="0.4" />
<path d="M171 70.3125C171 72.9013 168.931 75 166.378 75C163.826 75 161.757 72.9013 161.757 70.3125C161.757 67.7237 163.826 65.625 166.378 65.625C168.931 65.625 171 67.7237 171 70.3125Z" fill="#000" opacity="0.4" />
<path d="M203.351 70.3125C203.351 72.9013 201.282 75 198.73 75C196.177 75 194.108 72.9013 194.108 70.3125C194.108 67.7237 196.177 65.625 198.73 65.625C201.282 65.625 203.351 67.7237 203.351 70.3125Z" fill="#000" opacity="0.4" />
<path d="M235.703 70.3125C235.703 72.9013 233.634 75 231.081 75C228.529 75 226.46 72.9013 226.46 70.3125C226.46 67.7237 228.529 65.625 231.081 65.625C233.634 65.625 235.703 67.7237 235.703 70.3125Z" fill="#000" opacity="0.4" />
<path d="M268.054 70.3125C268.054 72.9013 265.985 75 263.433 75C260.88 75 258.811 72.9013 258.811 70.3125C258.811 67.7237 260.88 65.625 263.433 65.625C265.985 65.625 268.054 67.7237 268.054 70.3125Z" fill="#000" opacity="0.4" />
<path d="M300.405 70.3125C300.405 72.9013 298.336 75 295.784 75C293.232 75 291.162 72.9013 291.162 70.3125C291.162 67.7237 293.232 65.625 295.784 65.625C298.336 65.625 300.405 67.7237 300.405 70.3125Z" fill="#000" opacity="0.4" />
</svg>
