<svg width="16" height="15" viewBox="0 0 16 15" fill="none" xmlns="http://www.w3.org/2000/svg">
<g clip-path="url(#clip0_51661_285)">
<path fill-rule="evenodd" clip-rule="evenodd" d="M0.341463 7.5091C0.339468 7.5057 0.339467 7.50148 0.341461 7.49806L4.11326 1.05374C4.11523 1.0504 4.11883 1.04834 4.1227 1.04834H11.5986C11.6025 1.04834 11.6061 1.05041 11.6081 1.05379L15.3385 7.49811C15.3405 7.50148 15.3405 7.50567 15.3385 7.50904L11.6081 13.9461C11.6061 13.9495 11.6025 13.9516 11.5986 13.9516H4.1227C4.11883 13.9516 4.11523 13.9495 4.11326 13.9462L0.341463 7.5091ZM11.3151 7.49996C11.3151 9.41856 9.75975 10.9739 7.84115 10.9739C5.92255 10.9739 4.36721 9.41856 4.36721 7.49996C4.36721 5.58133 5.92255 4.02602 7.84115 4.02602C9.75975 4.02602 11.3151 5.58133 11.3151 7.49996Z" fill="#000"/>
</g>
<defs>
<clipPath id="clip0_51661_285">
<rect width="15" height="15" fill="white" transform="translate(0.339966)"/>
</clipPath>
</defs>
</svg>
