<svg width="15" height="15" viewBox="0 0 15 15" fill="none" xmlns="http://www.w3.org/2000/svg">
<g clip-path="url(#clip0_51661_649)">
<path d="M7.27661 2.7904L3.55115 0.945312L3.66383 5.06914L7.18136 6.81123L7.27661 2.7904Z" fill="#000"/>
<path d="M11.4126 5.11935L11.3653 0.96228L7.74207 2.93484L7.78678 6.85991L11.4126 5.11935Z" fill="#000"/>
<path d="M11.4105 9.56585L14.9999 7.5128L11.4087 5.62402L7.81909 7.50956L11.4105 9.56585Z" fill="#000"/>
<path d="M7.18078 7.5128L3.59146 9.56585L0 7.50956L3.5896 5.62402L7.18078 7.5128Z" fill="#000"/>
<path d="M11.4667 14.0174L7.74121 12.1723L7.83646 8.15149L11.354 9.89361L11.4667 14.0174Z" fill="#000"/>
<path d="M3.63245 9.89791L3.6798 14.055L7.30302 12.0824L7.25831 8.15735L3.63245 9.89791Z" fill="#000"/>
</g>
<defs>
<clipPath id="clip0_51661_649">
<rect width="15" height="15" fill="#000"/>
</clipPath>
</defs>
</svg>
